<svg xmlns="http://www.w3.org/2000/svg" width="16" height="16" viewBox="0 0 16 16" fill="currentColor">
  <path fill-rule="evenodd" d="M3.5 1 H12.5 A2.5 2.5 0 0 1 15 3.5 V12.5 A2.5 2.5 0 0 1 12.5 15 H3.5 A2.5 2.5 0 0 1 1 12.5 V3.5 A2.5 2.5 0 0 1 3.5 1 Z M3.6 2.3 H12.4 A1.3 1.3 0 0 1 13.7 3.6 V12.4 A1.3 1.3 0 0 1 12.4 13.7 H3.6 A1.3 1.3 0 0 1 2.3 12.4 V3.6 A1.3 1.3 0 0 1 3.6 2.3 Z"/>
  <rect x="2.3" y="10.1" width="11.4" height="3.6" rx="1.1"/>
  <path d="M7.4 3.9 V6.4 H6.1 L8 8.8 L9.9 6.4 H8.6 V3.9 Z"/>
</svg>
